<svg width="256" height="256" viewBox="0 0 256 256" xmlns="http://www.w3.org/2000/svg" xmlns:xlink="http://www.w3.org/1999/xlink" id="_图层_1" overflow="hidden"><defs></defs><defs></defs><g id="_å_ç_å_å__10742139036.å_å_æ_å_ä_"><g id="Group"><g id="Group_2"><g id="Group_3"><path d="M251.59 52.97C249.15 52.97 247.18 54.95 247.18 57.38 247.18 62.25 243.22 66.21 238.35 66.21 233.48 66.21 229.52 62.25 229.52 57.38 229.52 54.94 227.54 52.97 225.11 52.97 222.68 52.97 220.7 54.95 220.7 57.38 220.7 65.47 226.17 72.31 233.61 74.38 232.14 82.87 225.81 89.72 217.6 91.93 215.71 86.62 210.98 82.64 205.25 81.81L205.25 79.44C205.25 78.22 204.26 77.23 203.04 77.23L192.01 77.23 192.01 75.02C192.01 73.8 191.02 72.81 189.8 72.81L178.77 72.81 178.77 68.4 189.8 68.4C191.02 68.4 192.01 67.41 192.01 66.19 192.01 49.09 185.35 33.02 173.27 20.94 161.18 8.85 145.11 2.19 128.01 2.19 110.91 2.19 94.84 8.85 82.76 20.94 70.67 33.03 64.01 49.1 64.01 66.19 64.01 67.41 65 68.4 66.22 68.4L77.25 68.4 77.25 72.81 66.22 72.81C65 72.81 64.01 73.8 64.01 75.02L64.01 77.23 52.98 77.23C51.76 77.23 50.77 78.22 50.77 79.44L50.77 81.81C44.55 82.7 39.52 87.31 38 93.3 25.15 95.9 15.17 106.51 13.5 119.67 5.77 121.55 0.01 128.52 0.01 136.82 0.01 139.26 1.99 141.23 4.42 141.23 6.85 141.23 8.83 139.25 8.83 136.82 8.83 131.95 12.79 127.99 17.66 127.99 22.53 127.99 26.49 131.95 26.49 136.82 26.49 139.26 28.47 141.23 30.9 141.23 33.33 141.23 35.31 139.25 35.31 136.82 35.31 128.73 29.84 121.89 22.4 119.82 23.87 111.33 30.2 104.48 38.41 102.27 40.3 107.58 45.03 111.56 50.76 112.39L50.76 114.76C50.76 115.98 51.75 116.97 52.97 116.97L64 116.97 64 176.56C64 177.78 64.99 178.77 66.21 178.77L77.24 178.77 77.24 183.18 68.41 183.18C48.94 183.18 33.1 199.02 33.1 218.49 33.1 237.96 48.94 253.8 68.41 253.8L187.58 253.8C207.05 253.8 222.89 237.96 222.89 218.49 222.89 199.02 207.05 183.18 187.58 183.18L178.75 183.18 178.75 178.77 189.78 178.77C191 178.77 191.99 177.78 191.99 176.56L191.99 116.97 203.02 116.97C204.24 116.97 205.23 115.98 205.23 114.76L205.23 112.39C211.45 111.5 216.48 106.89 218 100.9 230.85 98.3 240.83 87.69 242.5 74.53 250.23 72.65 255.99 65.68 255.99 57.38 255.99 54.94 254.01 52.97 251.58 52.97L251.59 52.97M68.46 64C69.62 32.16 95.89 6.62 128.01 6.62 160.13 6.62 186.39 32.16 187.56 64L68.47 64 68.46 64M81.66 68.41 174.35 68.41 174.35 72.82 81.66 72.82 81.66 68.41M42.88 101.55C42.28 100.19 41.94 98.68 41.94 97.1 41.94 95.52 42.27 94.06 42.85 92.71 44.27 89.45 47.21 87.01 50.77 86.28L50.77 107.91C47.24 107.19 44.31 104.77 42.88 101.55M55.18 112.55 55.18 81.65 64.01 81.65 64.01 112.55 55.18 112.55M187.59 187.58C204.63 187.58 218.49 201.44 218.49 218.48 218.49 235.52 204.63 249.38 187.59 249.38L68.42 249.38C51.38 249.38 37.52 235.52 37.52 218.48 37.52 201.44 51.38 187.58 68.42 187.58L187.59 187.58M174.35 183.17 81.66 183.17 81.66 178.76 174.35 178.76 174.35 183.17M187.59 174.34 68.42 174.34 68.42 77.24 187.59 77.24 187.59 174.34M200.83 112.55 192 112.55 192 81.65 200.83 81.65 200.83 112.55M205.24 107.91 205.24 86.28C208.78 87 211.7 89.42 213.13 92.64 213.73 94 214.07 95.51 214.07 97.09 214.07 98.67 213.74 100.13 213.16 101.48 211.74 104.74 208.8 107.18 205.24 107.91" id="Vector" stroke-width="0" fill="#333333"/></g><g id="Group_4"><path d="M128 194.21C114.61 194.21 103.72 205.1 103.72 218.49 103.72 231.88 114.61 242.77 128 242.77 141.39 242.77 152.28 231.88 152.28 218.49 152.28 205.1 141.39 194.21 128 194.21M128 238.35C117.05 238.35 108.14 229.44 108.14 218.49 108.14 207.54 117.05 198.63 128 198.63 138.95 198.63 147.86 207.54 147.86 218.49 147.86 229.44 138.95 238.35 128 238.35" id="Vector_2" stroke-width="0" fill="#333333"/></g><g id="Group_5"><path d="M70.62 194.21C57.23 194.21 46.34 205.1 46.34 218.49 46.34 231.88 57.23 242.77 70.62 242.77 84.01 242.77 94.9 231.88 94.9 218.49 94.9 205.1 84.01 194.21 70.62 194.21M70.62 238.35C59.67 238.35 50.76 229.44 50.76 218.49 50.76 207.54 59.67 198.63 70.62 198.63 81.57 198.63 90.48 207.54 90.48 218.49 90.48 229.44 81.57 238.35 70.62 238.35" id="Vector_3" stroke-width="0" fill="#333333"/></g><g id="Group_6"><path d="M161.1 218.48C161.1 231.87 171.99 242.76 185.37 242.76 198.75 242.76 209.65 231.87 209.65 218.48 209.65 205.09 198.76 194.2 185.37 194.2 171.98 194.2 161.1 205.09 161.1 218.48M185.37 198.62C196.32 198.62 205.23 207.53 205.23 218.48 205.23 229.43 196.32 238.34 185.37 238.34 174.42 238.34 165.51 229.43 165.51 218.48 165.51 207.53 174.42 198.62 185.37 198.62" id="Vector_4" stroke-width="0" fill="#333333"/></g><g id="Group_7"><path d="M176.55 112.55 79.45 112.55C78.23 112.55 77.24 113.54 77.24 114.76L77.24 163.31C77.24 164.53 78.23 165.52 79.45 165.52L176.55 165.52C177.77 165.52 178.76 164.53 178.76 163.31L178.76 114.76C178.76 113.54 177.77 112.55 176.55 112.55M174.34 161.1 81.65 161.1 81.65 116.96 174.34 116.96 174.34 161.1" id="Vector_5" stroke-width="0" fill="#333333"/></g><g id="Group_8"><path d="M176.55 81.66 167.72 81.66C166.5 81.66 165.51 82.65 165.51 83.87L165.51 105.94C165.51 107.16 166.5 108.15 167.72 108.15L176.55 108.15C177.77 108.15 178.76 107.16 178.76 105.94L178.76 83.87C178.76 82.65 177.77 81.66 176.55 81.66M174.34 103.73 169.93 103.73 169.93 86.08 174.34 86.08 174.34 103.73" id="Vector_6" stroke-width="0" fill="#333333"/></g><g id="Group_9"><path d="M150.07 108.14 158.9 108.14C160.12 108.14 161.11 107.15 161.11 105.93L161.11 83.86C161.11 82.64 160.12 81.65 158.9 81.65L150.07 81.65C148.85 81.65 147.86 82.64 147.86 83.86L147.86 105.93C147.86 107.15 148.85 108.14 150.07 108.14M152.28 86.07 156.69 86.07 156.69 103.72 152.28 103.72 152.28 86.07" id="Vector_7" stroke-width="0" fill="#333333"/></g><g id="Group_10"><path d="M128 55.17C138.95 55.17 147.86 46.26 147.86 35.31 147.86 24.36 138.95 15.45 128 15.45 117.05 15.45 108.14 24.36 108.14 35.31 108.14 46.26 117.05 55.17 128 55.17M128 19.86C136.52 19.86 143.45 26.79 143.45 35.31 143.45 43.83 136.52 50.76 128 50.76 119.48 50.76 112.55 43.83 112.55 35.31 112.55 26.79 119.48 19.86 128 19.86" id="Vector_8" stroke-width="0" fill="#333333"/></g></g></g></g></svg>